<svg t="1669811311163" class="icon" viewBox="0 0 1024 1024" version="1.1" xmlns="http://www.w3.org/2000/svg" p-id="5495" width="128" height="128"><path d="M134.095238 256C147.560466 256 158.476191 246.448741 158.476191 234.666667 158.476191 222.884592 147.560466 213.333333 134.095238 213.333333L36.571428 213.333333C23.1062 213.333333 12.190476 222.884592 12.190476 234.666667 12.190476 246.448741 23.1062 256 36.571428 256L134.095238 256Z" p-id="5496"></path><path d="M134.095238 533.333333C147.560466 533.333333 158.476191 523.782074 158.476191 512 158.476191 500.217926 147.560466 490.666667 134.095238 490.666667L36.571428 490.666667C23.1062 490.666667 12.190476 500.217926 12.190476 512 12.190476 523.782074 23.1062 533.333333 36.571428 533.333333L134.095238 533.333333Z" p-id="5497"></path><path d="M134.095238 810.666667C147.560466 810.666667 158.476191 801.115407 158.476191 789.333333 158.476191 777.55126 147.560466 768 134.095238 768L36.571428 768C23.1062 768 12.190476 777.55126 12.190476 789.333333 12.190476 801.115407 23.1062 810.666667 36.571428 810.666667L134.095238 810.666667Z" p-id="5498"></path><path d="M987.428572 256C1000.893801 256 1011.809523 246.448741 1011.809523 234.666667 1011.809523 222.884592 1000.893801 213.333333 987.428572 213.333333L280.380951 213.333333C266.915725 213.333333 256 222.884592 256 234.666667 256 246.448741 266.915725 256 280.380951 256L987.428572 256Z" p-id="5499"></path><path d="M993.52381 533.333333C1006.989037 533.333333 1017.904762 523.782074 1017.904762 512 1017.904762 500.217926 1006.989037 490.666667 993.52381 490.666667L286.47619 490.666667C273.010963 490.666667 262.095238 500.217926 262.095238 512 262.095238 523.782074 273.010963 533.333333 286.47619 533.333333L993.52381 533.333333Z" p-id="5500"></path><path d="M996.571428 810.666667C1010.036657 810.666667 1020.952382 801.115407 1020.952382 789.333333 1020.952382 777.55126 1010.036657 768 996.571428 768L289.52381 768C276.058581 768 265.142857 777.55126 265.142857 789.333333 265.142857 801.115407 276.058581 810.666667 289.52381 810.666667L996.571428 810.666667Z" p-id="5501"></path></svg>