<svg t="1669811146957" class="icon" viewBox="0 0 1024 1024" version="1.1" xmlns="http://www.w3.org/2000/svg" p-id="3615" width="128" height="128"><path d="M131.253515 789.333333C87.810305 789.333333 52.51282 753.473975 52.51282 709.41763L52.51282 69.333333 26.25641 96 892.853331 96C936.231586 96 971.487179 131.853286 971.487179 175.915703L971.487179 816 997.74359 789.333333 525.128205 789.333333 517.234323 789.333333 510.649171 793.754413 285.912493 944.636066C273.815607 952.757562 270.491629 969.301024 278.488179 981.586923 286.484727 993.872821 302.773675 997.248736 314.87056 989.127241L539.607238 838.245587 525.128205 842.666667 997.74359 842.666667 1024 842.666667 1024 816 1024 175.915703C1024 102.41369 965.24899 42.666667 892.853331 42.666667L26.25641 42.666667 0 42.666667 0 69.333333 0 709.41763C0 782.925715 58.804881 842.666667 131.253515 842.666667L268.117303 842.666667C282.618319 842.666667 294.373713 830.727593 294.373713 816 294.373713 801.272407 282.618319 789.333333 268.117303 789.333333L131.253515 789.333333Z" p-id="3616"></path><path d="M367.589743 442.666667C367.589743 383.756294 320.568162 336 262.564102 336 204.560043 336 157.538461 383.756294 157.538461 442.666667 157.538461 501.577039 204.560043 549.333333 262.564102 549.333333 320.568162 549.333333 367.589743 501.577039 367.589743 442.666667ZM210.051282 442.666667C210.051282 413.211479 233.562074 389.333333 262.564102 389.333333 291.566133 389.333333 315.076924 413.211479 315.076924 442.666667 315.076924 472.121854 291.566133 496 262.564102 496 233.562074 496 210.051282 472.121854 210.051282 442.666667Z" p-id="3617"></path><path d="M630.153845 442.666667C630.153845 383.756294 583.132265 336 525.128205 336 467.124145 336 420.102564 383.756294 420.102564 442.666667 420.102564 501.577039 467.124145 549.333333 525.128205 549.333333 583.132265 549.333333 630.153845 501.577039 630.153845 442.666667ZM472.615386 442.666667C472.615386 413.211479 496.126176 389.333333 525.128205 389.333333 554.130236 389.333333 577.641026 413.211479 577.641026 442.666667 577.641026 472.121854 554.130236 496 525.128205 496 496.126176 496 472.615386 472.121854 472.615386 442.666667Z" p-id="3618"></path><path d="M892.717948 442.666667C892.717948 383.756294 845.696367 336 787.692307 336 729.688247 336 682.666667 383.756294 682.666667 442.666667 682.666667 501.577039 729.688247 549.333333 787.692307 549.333333 845.696367 549.333333 892.717948 501.577039 892.717948 442.666667ZM735.179488 442.666667C735.179488 413.211479 758.690278 389.333333 787.692307 389.333333 816.694338 389.333333 840.205129 413.211479 840.205129 442.666667 840.205129 472.121854 816.694338 496 787.692307 496 758.690278 496 735.179488 472.121854 735.179488 442.666667Z" p-id="3619"></path></svg>