<svg t="1669810839443" class="icon" viewBox="0 0 1024 1024" version="1.1" xmlns="http://www.w3.org/2000/svg" p-id="2676" width="128" height="128"><path d="M268.299629 187.151447l-22.103414 59.044768-59.044768 0 47.993061 36.941354-22.103414 66.514903 55.360865-40.625256 55.360865 40.625256-22.103414-66.514903 47.993061-36.941354-59.044768 0L268.299629 187.151447zM268.299629 430.800653l-22.103414 59.044768-59.044768 0 47.993061 36.941354-22.103414 66.514903 55.360865-40.625256 55.360865 40.625256-22.103414-66.514903 47.993061-36.941354-59.044768 0L268.299629 430.800653zM290.505373 733.494627l-22.103414-59.044768-22.103414 59.044768-59.044768 0 47.993061 36.941354-22.103414 66.412572 55.360865-40.625256 55.360865 40.625256-22.103414-66.412572 47.993061-36.941354L290.505373 733.494627zM877.473809 65.275679l-730.947618 0c-44.820811 0-81.250512 36.32737-81.250512 81.250512l0 730.947618c0 44.923142 36.32737 81.250512 81.250512 81.250512l730.947618 0c44.820811 0 81.250512-36.32737 81.250512-81.250512l0-730.947618C958.724321 101.70538 922.29462 65.275679 877.473809 65.275679M918.099065 877.473809c0 22.410406-18.21485 40.625256-40.625256 40.625256l-730.947618 0c-22.410406 0-40.625256-18.21485-40.625256-40.625256l0-730.947618c0-22.410406 18.11252-40.625256 40.625256-40.625256l730.947618 0c22.410406 0 40.625256 18.21485 40.625256 40.625256L918.099065 877.473809 918.099065 877.473809zM816.58709 248.140497l-365.524974 0c-11.256368 0-20.261463 9.107425-20.261463 20.261463 0 11.256368 9.107425 20.261463 20.261463 20.261463l365.524974 0c11.256368 0 20.261463-9.107425 20.261463-20.261463C836.848553 257.145591 827.741128 248.140497 816.58709 248.140497M816.58709 735.336578l-365.524974 0c-11.256368 0-20.261463 9.107425-20.261463 20.363793s9.107425 20.261463 20.261463 20.261463l365.524974 0c11.256368 0 20.261463-9.107425 20.261463-20.261463C836.848553 744.444003 827.741128 735.336578 816.58709 735.336578M816.58709 491.789703l-365.524974 0c-11.256368 0-20.261463 9.107425-20.261463 20.261463 0 11.256368 9.107425 20.261463 20.261463 20.261463l365.524974 0c11.256368 0 20.261463-9.107425 20.261463-20.261463C836.848553 500.794797 827.741128 491.789703 816.58709 491.789703" p-id="2677"></path></svg>