<?xml version="1.0" standalone="no"?><!DOCTYPE svg PUBLIC "-//W3C//DTD SVG 1.1//EN" "http://www.w3.org/Graphics/SVG/1.1/DTD/svg11.dtd"><svg t="1668143207216" class="icon" viewBox="0 0 1024 1024" version="1.1" xmlns="http://www.w3.org/2000/svg" p-id="2698" width="128" height="128" xmlns:xlink="http://www.w3.org/1999/xlink"><path d="M82.897455 242.920727h145.966545v43.333818c0 31.138909 25.320727 56.506182 56.506182 56.506182h126.882909c31.138909 0 56.506182-25.320727 56.506182-56.506182v-43.333818h475.275636a34.909091 34.909091 0 0 0 0-69.818182H468.712727v-43.426909c0-31.138909-25.320727-56.459636-56.506182-56.459636H285.370182c-31.138909 0-56.506182 25.320727-56.506182 56.459636v43.426909H82.897455a34.909091 34.909091 0 0 0 0 69.818182z m215.784727-99.886545H398.894545v129.908363H298.682182V143.034182z m645.306182 343.179636h-145.966546v-43.333818c0-31.185455-25.367273-56.552727-56.506182-56.552727h-126.882909c-31.138909 0-56.506182 25.367273-56.506182 56.552727v43.380364H82.897455a34.909091 34.909091 0 0 0 0 69.818181h475.275636v43.380364c0 31.138909 25.367273 56.506182 56.506182 56.506182h126.882909c31.138909 0 56.506182-25.367273 56.506182-56.506182v-43.380364h145.966545a34.909091 34.909091 0 1 0-0.046545-69.864727z m-215.738182 99.886546h-100.212364V456.145455h100.212364v129.954909z m215.738182 213.224727H468.712727v-43.380364c0-31.138909-25.320727-56.506182-56.506182-56.506182H285.370182c-31.138909 0-56.506182 25.367273-56.506182 56.506182v43.380364H82.897455a34.909091 34.909091 0 0 0 0 69.818182h145.966545v43.380363c0 31.185455 25.320727 56.552727 56.506182 56.552728h126.882909c31.138909 0 56.506182-25.367273 56.506182-56.552728v-43.380363h475.275636a34.909091 34.909091 0 1 0-0.046545-69.818182zM398.894545 899.211636H298.682182v-129.954909H398.894545v129.954909z" p-id="2699"></path></svg>